<?xml version="1.0" encoding="UTF-8"?>
<svg width="21px" height="18px" viewBox="0 0 21 18" version="1.1" xmlns="http://www.w3.org/2000/svg" xmlns:xlink="http://www.w3.org/1999/xlink">
    <title>004EC265-1DB7-4CA4-B7F8-F6C58A1FE93A@1x</title>
    <g id="Screens" stroke="none" stroke-width="1" fill="none" fill-rule="evenodd">
        <g id="01-Home-" transform="translate(-30.000000, -47.000000)" fill="#FFFFFF">
            <path d="M35,63 C35.5522847,63 36,63.4477153 36,64 C36,64.5522847 35.5522847,65 35,65 L31,65 C30.4477153,65 30,64.5522847 30,64 C30,63.4477153 30.4477153,63 31,63 L35,63 Z M43,55 C43.5522847,55 44,55.4477153 44,56 C44,56.5522847 43.5522847,57 43,57 L31,57 C30.4477153,57 30,56.5522847 30,56 C30,55.4477153 30.4477153,55 31,55 L43,55 Z M50,47 C50.5522847,47 51,47.4477153 51,48 C51,48.5522847 50.5522847,49 50,49 L31,49 C30.4477153,49 30,48.5522847 30,48 C30,47.4477153 30.4477153,47 31,47 L50,47 Z" id="ic_menu"></path>
        </g>
    </g>
</svg>