<svg width="24" height="24" viewBox="0 0 24 24" fill="none" xmlns="http://www.w3.org/2000/svg">
  <g>
    <path fill="#4285F4" d="M12 12v3.6h5.1c-.2 1.2-1.5 3.5-5.1 3.5-3.1 0-5.6-2.6-5.6-5.7s2.5-5.7 5.6-5.7c1.8 0 3 .7 3.7 1.3l2.5-2.4C16.2 5.6 14.3 4.7 12 4.7 6.9 4.7 2.7 8.9 2.7 14s4.2 9.3 9.3 9.3c5.4 0 8.9-3.8 8.9-9.2 0-.6-.1-1.1-.2-1.6H12z"/>
    <path fill="#34A853" d="M3.6 7.1l2.9 2.1C7.7 7.7 9.7 6.5 12 6.5c1.8 0 3.4.7 4.6 1.8l2.7-2.6C17.7 3.7 15.1 2.7 12 2.7c-3.6 0-6.7 2.1-8.4 5.4z"/>
    <path fill="#FBBC05" d="M12 21.3c2.7 0 5-1.1 6.6-2.9l-3.2-2.6c-.9.6-2.1 1-3.4 1-2.6 0-4.8-1.7-5.6-4.1l-3.2 2.5C5.2 19.2 8.3 21.3 12 21.3z"/>
    <path fill="#EA4335" d="M21.6 12.2c0-.7-.1-1.4-.2-2.1H12v4.1h5.1c-.2 1.2-1.5 3.5-5.1 3.5-3.1 0-5.6-2.6-5.6-5.7s2.5-5.7 5.6-5.7c1.8 0 3 .7 3.7 1.3l2.5-2.4C16.2 5.6 14.3 4.7 12 4.7 6.9 4.7 2.7 8.9 2.7 14s4.2 9.3 9.3 9.3c5.4 0 8.9-3.8 8.9-9.2z"/>
  </g>
</svg>
